# xmcd
#
# Track frame offsets: 
#        150
#        14292
#        28842
#        46092
#        59067
#        75342
#        86892
#        102418
#        114717
#        126267
#
# Disc length: 1833 seconds
#
# Revision: 0
# Processed by: cddbd v1.5.2PL0 Copyright (c) Steve Scherf et al.
# Submitted via: ExactAudioCopy v0.95b4
#
DISCID=8207270a
DTITLE=Alan James - Back Alley Blues
DYEAR=2008
DGENRE=Blues
TTITLE0=Open Road
TTITLE1=I've Got The Blues
TTITLE2=I'm Hypnotized
TTITLE3=Fly Away
TTITLE4=Take Three
TTITLE5=Paintbrush
TTITLE6=You Da Loudest Thang
TTITLE7=The Luckiest Man In Town
TTITLE8=Dance Dance Dance
TTITLE9=Ode To Lightning
EXTD=
EXTT0=
EXTT1=
EXTT2=
EXTT3=
EXTT4=
EXTT5=
EXTT6=
EXTT7=
EXTT8=
EXTT9=
PLAYORDER=
